HIERARCHY
ROOT Hips
{
  OFFSET 267.745 86.9975 -272.335
  CHANNELS 6 Xposition Yposition Zposition Zrotation Xrotation Yrotation
  JOINT LeftUpLeg
  {
    OFFSET 8.64259 1.95398 -2.38835
    CHANNELS 3 Zrotation Xrotation Yrotation
    JOINT LeftLeg
    {
      OFFSET 43.7702 0 0
      CHANNELS 3 Zrotation Xrotation Yrotation
      JOINT LeftFoot
      {
        OFFSET 40.6238 0 0
        CHANNELS 3 Zrotation Xrotation Yrotation
        JOINT LeftToeBase
        {
          OFFSET 12.7242 0 0
          CHANNELS 3 Zrotation Xrotation Yrotation
          End Site
          {
            OFFSET 0 0 0
          }
        }
      }
    }
  }
  JOINT RightUpLeg
  {
    OFFSET -8.2249 1.95398 -2.59336
    CHANNELS 3 Zrotation Xrotation Yrotation
    JOINT RightLeg
    {
      OFFSET 43.5653 0 0
      CHANNELS 3 Zrotation Xrotation Yrotation
      JOINT RightFoot
      {
        OFFSET 40.6238 0 0
        CHANNELS 3 Zrotation Xrotation Yrotation
        JOINT RightToeBase
        {
          OFFSET 12.7242 0 0
          CHANNELS 3 Zrotation Xrotation Yrotation
          End Site
          {
            OFFSET 0 0 0
          }
        }
      }
    }
  }
  JOINT Spine
  {
    OFFSET 0.165834 0.87714 6.61349
    CHANNELS 3 Zrotation Xrotation Yrotation
    JOINT Spine1
    {
      OFFSET 7.38963 1.71661e-005 0
      CHANNELS 3 Zrotation Xrotation Yrotation
      JOINT Spine2
      {
        OFFSET 11.9445 1.14441e-005 0
        CHANNELS 3 Zrotation Xrotation Yrotation
        JOINT Spine3
        {
          OFFSET 14.7254 4.19617e-005 0
          CHANNELS 3 Zrotation Xrotation Yrotation
          JOINT Spine4
          {
            OFFSET 10.9679 0 0
            CHANNELS 3 Zrotation Xrotation Yrotation
            JOINT RightShoulder
            {
              OFFSET 2.46616 -1.6653 3.69651
              CHANNELS 3 Zrotation Xrotation Yrotation
              JOINT RightArm
              {
                OFFSET 13.0012 0 0
                CHANNELS 3 Zrotation Xrotation Yrotation
                JOINT RightForeArm
                {
                  OFFSET 28.7848 1.52588e-005 0
                  CHANNELS 3 Zrotation Xrotation Yrotation
                  JOINT RightHand
                  {
                    OFFSET 26.5688 1.52588e-005 0
                    CHANNELS 3 Zrotation Xrotation Yrotation
                    End Site
                    {
                      OFFSET 0 0 0
                    }
                  }
                }
              }
            }
            JOINT LeftShoulder
            {
              OFFSET 2.38034 -1.29275 -3.7523
              CHANNELS 3 Zrotation Xrotation Yrotation
              JOINT LeftArm
              {
                OFFSET 16.3182 6.10352e-005 0
                CHANNELS 3 Zrotation Xrotation Yrotation
                JOINT LeftForeArm
                {
                  OFFSET 27.0901 0 0
                  CHANNELS 3 Zrotation Xrotation Yrotation
                  JOINT LeftHand
                  {
                    OFFSET 24.5451 1.52588e-005 0
                    CHANNELS 3 Zrotation Xrotation Yrotation
                    End Site
                    {
                      OFFSET 0 0 0
                    }
                  }
                }
              }
            }
            JOINT Neck
            {
              OFFSET 5.0226 -0.0266342 0
              CHANNELS 3 Zrotation Xrotation Yrotation
              JOINT Head
              {
                OFFSET 6.69364 2.86102e-005 0
                CHANNELS 3 Zrotation Xrotation Yrotation
                End Site
                {
                  OFFSET 0 0 0
                }
              }
            }
          }
        }
      }
    }
  }
}
MOTION
Frames:	10
Frame Time:	0.0416667
234.969 99.6236 -254.437 -91.489 -58.8729 -90.0735 -174.905 -0.904103 91.0102 -8.02456 15.8892 2.71385 58.4273 2.69317 12.551 40.3909 -1.30807 0.641758 176.285 4.43699 91.1565 -18.1096 -12.4698 0.400269 56.7648 4.94666 -0.0221365 45.2322 -4.22472 -2.55125 0.428263 8.30259 -91.4738 10.2618 0.179875 -2.94239 -1.41252 0.050258 -2.94746 -23.9236 1.05554 -2.75257 -3.91095 1.05554 -2.75257 132.987 -35.1796 -26.6995 28.4931 -28.3023 -20.3955 -14.2044 -31.6868 -33.2234 -20.9784 -2.30746 7.55785 -41.819 -75.5181 138.094 -15.2623 6.78398 -24.63 10.1117 45.2753 -22.9357 -5.17856 0.0688136 -10.8683 70.0983 38.3685 17.7972 -71.9973 32.8199 -19.1452 
235.025 99.5934 -254.462 -91.2755 -58.7665 -90.5342 -175.459 -0.865769 90.215 -8.03959 15.1795 2.76322 58.5221 3.09527 13.6028 40.0714 -1.24842 -0.670503 175.968 5.08444 90.4124 -19.0616 -12.5562 0.413975 57.3145 4.78887 -0.00795342 44.9991 -4.12405 -1.86636 0.399756 8.27388 -91.3887 10.3198 0.161162 -2.7722 -1.35406 0.0390619 -2.7766 -23.8678 0.986599 -2.59583 -3.85517 0.986618 -2.59582 132.769 -34.9587 -26.8963 27.8441 -34.5028 -20.6384 7.17504 0.996729 -29.198 -41.8243 3.21889 -10.4402 -41.8284 -75.4513 138.109 -15.7134 6.17012 -24.8681 9.52317 44.2621 -22.5714 -6.35089 0.056311 -8.52569 70.5818 37.6408 17.1532 -74.4281 32.3926 -17.9951 
234.985 99.547 -254.466 -91.4881 -59.0643 -90.5865 -175.306 -1.01043 90.7516 -8.12642 15.7351 2.7328 58.4964 2.69845 11.9476 40.829 -1.37119 2.07148 175.998 4.68825 90.6622 -18.5369 -13.8223 0.524195 57.1746 4.2904 -1.7147 45.1874 -4.27393 -2.88589 0.314838 8.23613 -91.3827 10.3936 -0.00611586 -2.74541 -1.28021 -0.126893 -2.74249 -23.7936 0.818971 -2.62051 -3.78097 0.818989 -2.62051 132.107 -34.6328 -27.7417 27.2152 -42.4632 -20.8066 56.1124 46.2805 -60.4062 -56.2034 15.983 -36.631 -42.7806 -75.1823 137.142 -16.2062 5.88148 -24.8018 10.2629 44.7925 -23.1248 -7.49689 0.136529 -9.62628 71.4958 35.4116 15.1776 -79.7047 30.2809 -14.1561 
234.899 99.4035 -254.381 -89.4592 -59.4491 -88.2093 -175.071 0.213788 91.059 -8.18445 16.2837 2.72821 58.6068 2.87195 12.3121 40.465 -1.32558 1.36745 176.723 4.52639 91.7312 -16.6625 -17.8978 0.591433 55.7255 3.15732 -7.0499 47.5434 -5.11062 -5.70675 0.210824 8.04201 -91.4098 10.7786 -0.230452 -2.78224 -0.89529 -0.352648 -2.76943 -23.4073 0.616036 -2.72301 -3.39462 0.616051 -2.723 130.965 -34.0038 -29.1837 29.5049 -37.5583 -19.942 21.7544 23.2367 -32.0826 -55.5791 8.35833 -22.7747 -44.6823 -74.4396 135.266 -16.2443 7.52203 -24.3492 14.0715 48.4545 -26.8998 -5.65229 -0.0544298 -4.85728 71.0584 32.4846 13.8869 -84.2431 27.637 -11.2828 
234.954 99.5089 -254.409 -90.8106 -59.4256 -89.4937 -175.038 -0.441065 90.9929 -8.18675 16.4941 2.73479 58.3404 2.78908 12.9089 40.9066 -1.36238 0.627327 176.759 4.44299 91.5537 -17.7868 -11.7998 -0.0124473 57.0576 4.5535 -1.21601 45.4965 -4.2509 -1.85634 0.0893914 8.03222 -91.3642 10.7963 -0.451389 -2.67108 -0.877235 -0.568449 -2.64865 -23.3906 0.371953 -2.68328 -3.3779 0.371957 -2.68327 129.37 -33.3243 -31.3942 33.0979 -22.801 -18.9934 -25.7928 -49.5491 -37.0698 -1.98816 -0.218626 10.8056 -46.5178 -73.8956 133.368 -16.5458 8.0909 -23.6214 13.0253 46.0943 -26.2864 -2.89848 -0.0855943 -5.44044 69.3381 29.9254 13.9024 -86.9262 24.9902 -9.6971 
235.135 99.4057 -254.517 -92.2667 -58.9735 -91.2538 -175.228 -1.18363 90.4384 -8.13797 15.7197 2.67011 58.3864 2.6456 12.0357 40.9403 -1.37841 1.90986 176.28 3.41296 90.953 -17.1911 -18.4102 0.428257 56.7258 2.33784 -7.04766 46.2638 -4.77002 -6.21178 -0.0258786 8.01126 -91.239 10.8383 -0.623713 -2.40585 -0.834642 -0.72897 -2.3761 -23.3519 0.127927 -2.48204 -3.33924 0.127932 -2.48205 127.344 -32.3576 -34.234 35.266 -23.2909 -17.5335 -23.718 -49.0059 -35.0399 -3.13416 -0.31518 10.3485 -49.054 -72.9251 130.776 -16.9333 7.71657 -22.7671 11.7056 44.6906 -24.8974 -2.00198 -0.095455 -5.75903 66.2288 28.0978 13.8568 -85.6869 23.0525 -8.72384 
235.41 99.3798 -254.657 -92.4407 -58.4612 -91.5301 -175.419 -1.22692 90.131 -8.11959 15.2066 2.6765 58.3142 2.7175 12.5268 40.6686 -1.34517 1.25887 176.157 3.35123 90.6936 -16.8973 -20.1 0.502743 56.5043 1.98905 -8.10286 46.2793 -4.82817 -6.90392 -0.135289 7.91126 -91.167 11.038 -0.810315 -2.24456 -0.634616 -0.908282 -2.20676 -23.1544 -0.0984663 -2.38424 -3.14171 -0.098466 -2.38425 125.119 -31.5315 -37.6437 37.0725 -27.9401 -15.6633 -10.1687 -34.13 -25.5229 -16.7498 -1.19817 3.3905 -50.9936 -72.2577 128.732 -17.0204 7.249 -21.6649 11.4819 43.6674 -24.7519 -2.34088 -0.0919874 -5.41448 60.1956 29.0766 16.3981 -76.672 24.392 -12.0164 
235.705 99.3227 -254.808 -92.0958 -58.5512 -91.2176 -175.653 -0.817125 89.9622 -8.20993 15.145 2.74794 58.039 2.501 12.28 40.7546 -1.36136 1.9253 176.642 3.43692 90.8984 -16.743 -20.5778 0.0536363 56.2908 1.48752 -9.34351 46.7006 -4.97278 -7.58198 -0.314945 7.77467 -91.1126 11.3092 -1.14503 -2.10124 -0.362832 -1.23636 -2.04883 -22.8853 -0.46078 -2.34809 -2.87263 -0.460774 -2.34808 122.515 -30.5141 -41.7897 40.0811 -27.8442 -13.2112 -6.94741 -29.6278 -23.6756 -19.6289 -1.08912 1.22545 -53.1746 -71.3288 126.448 -17.6908 6.15206 -20.627 10.9436 42.5085 -23.9491 -2.55564 -0.0899161 -4.44833 51.0759 31.0134 20.8107 -61.4223 25.7165 -17.0247 
235.913 99.6517 -254.876 -92.3111 -58.4012 -91.4842 -175.577 -0.875131 89.8337 -8.13371 14.6895 2.61257 58.3619 2.83948 12.4955 40.0887 -1.28123 0.934808 172.457 4.62587 88.1335 -17.48 -13.0691 3.56833 58.0485 4.54459 0.149782 41.4561 -3.01003 4.54606 -0.478228 7.67742 -91.051 11.5029 -1.44267 -1.94648 -0.168595 -1.52692 -1.88114 -22.6945 -0.791159 -2.28991 -2.68184 -0.791159 -2.28991 119.636 -29.1316 -46.4843 43.2334 -27.3977 -11.3476 -8.28909 -32.5624 -24.2051 -22.7589 -1.69014 3.39352 -55.3013 -70.6401 124.115 -18.3551 4.56252 -19.4278 10.9231 41.8877 -23.2452 -2.27161 -0.0895828 -4.88941 45.486 30.274 23.1966 -55.4225 24.8203 -18.7768 
235.956 99.4732 -254.988 -92.5042 -58.4084 -91.5719 -175.417 -0.930838 90.0142 -8.07116 14.6546 2.53233 58.4906 2.71745 11.8492 39.8954 -1.2669 1.28156 176.133 3.8194 90.4678 -17.3374 -15.2128 0.173067 57.9852 2.71118 -2.95547 44.1448 -4.07766 -5.70415 -0.663188 7.58169 -91.0208 11.6928 -1.79795 -1.84642 0.0219236 -1.87746 -1.76553 -22.5076 -1.16009 -2.30124 -2.49493 -1.16006 -2.30125 116.175 -28.1375 -52.8498 46.4846 -25.0359 -8.97746 -8.0642 -31.4958 -22.9138 -17.3424 -0.96921 1.35325 -57.3161 -70.093 121.843 -18.4536 3.36977 -18.0548 10.2811 40.5895 -22.5423 -2.94332 -0.0892904 -5.81784 40.412 29.135 24.784 -50.7872 23.5803 -19.2933 
